<?xml version="1.0" encoding="UTF-8"?><svg xmlns="http://www.w3.org/2000/svg" id="canvas_3" width="747" height="468" version="1.1" viewBox="0 0 747 468" style="width: 747px; height: 468px;"><path stroke="none" opacity="1" fill-opacity="1" d="M 0,0 l 747,0 l 0,468 l-747 0 z" stroke-opacity="1" transform="matrix(1,0,0,1,0,0)" width="747" height="468" stroke-width="1" fill="#fff"></path><defs id="defs_1"></defs><g stroke="none" fill="none" opacity="1" fill-opacity="1" stroke-opacity="1" transform="matrix(1,0,0,1,0,0)"><g stroke="none" fill="none" opacity="1" fill-opacity="1" stroke-opacity="1" transform="matrix(1,0,0,1,0,0)"></g><g stroke="none" fill="none" opacity="1" fill-opacity="1" stroke-opacity="1" transform="matrix(1,0,0,1,0,0)"></g><g stroke="none" fill="none" opacity="1" fill-opacity="1" stroke-opacity="1" transform="matrix(1,0,0,1,0,0)"><text paint-order="stroke" style="stroke-linecap:butt; stroke-linejoin:miter;" alignment-baseline="auto" text-anchor="left" opacity="1" fill-opacity="1" stroke-opacity="1" transform="matrix(1,0,0,1,0,0)" x="24" y="42" stroke-width="1" font-size="18" font-family="PingFang SC" font-style="normal" font-weight="normal" font-variant="normal" fill="black" font="normal normal normal 18px PingFang SC">etcd benchmark</text></g><g stroke="none" fill="none" opacity="1" fill-opacity="1" stroke-opacity="1" transform="matrix(1,0,0,1,0,0)"><text paint-order="stroke" style="stroke-linecap:butt; stroke-linejoin:miter;" alignment-baseline="auto" text-anchor="left" opacity="1" fill-opacity="1" stroke-opacity="1" transform="matrix(1,0,0,1,0,0)" x="24" y="64.5" stroke-width="1" font-size="12" font-family="PingFang SC" font-style="normal" font-weight="normal" font-variant="normal" fill="grey" font="normal normal normal 12px PingFang SC">80000 calls, total secs, smaller is better</text></g><g stroke="none" fill="none" opacity="1" fill-opacity="1" stroke-opacity="1" transform="matrix(1,0,0,1,0,0)"><path stroke="none" d="M 0,77 l 747,0 l 0,391 l-747 0 z" opacity="1" fill-opacity="0" stroke-opacity="1" transform="matrix(1,0,0,1,0,0)" width="747" height="391" stroke-width="1" fill="#ffffff"></path><g stroke="none" fill="none" opacity="1" fill-opacity="1" stroke-opacity="1" transform="matrix(1,0,0,1,0,0)"></g><g stroke="none" fill="none" opacity="1" fill-opacity="1" stroke-opacity="1" transform="matrix(1,0,0,1,0,0)"><g stroke="none" fill="none" opacity="1" fill-opacity="1" stroke-opacity="1" transform="matrix(1,0,0,1,0,0)"><g stroke="none" fill="none" opacity="1" fill-opacity="1" stroke-opacity="1" transform="matrix(1,0,0,1,0,0)"><path fill="none" opacity="1" fill-opacity="1" stroke-opacity="0.15" transform="matrix(1,0,0,1,0,0)" d="M 70.4375 421.5L 70.4375 379.5010238474763L 70.4375 337.5020476949526L 70.4375 295.5030715424288L 70.4375 253.5040953899051L 70.4375 211.50511923738136L 70.4375 169.50614308485765L 70.4375 127.50716693233392" stroke-width="1" stroke="#000" stroke-dasharray="0,0"></path><path fill="none" opacity="1" fill-opacity="1" stroke-opacity="0.15" transform="matrix(1,0,0,1,0,0)" d="M 396.46875 421.5L 396.46875 379.5010238474763L 396.46875 337.5020476949526L 396.46875 295.5030715424288L 396.46875 253.5040953899051L 396.46875 211.50511923738136L 396.46875 169.50614308485765L 396.46875 127.50716693233392" stroke-width="1" stroke="#000" stroke-dasharray="0,0"></path><path fill="none" opacity="1" fill-opacity="1" stroke-opacity="0.15" transform="matrix(1,0,0,1,0,0)" d="M 722.5 421.5L 722.5 379.5010238474763L 722.5 337.5020476949526L 722.5 295.5030715424288L 722.5 253.5040953899051L 722.5 211.50511923738136L 722.5 169.50614308485765L 722.5 127.50716693233392" stroke-width="1" stroke="#000" stroke-dasharray="0,0"></path></g><path fill="none" opacity="1" fill-opacity="1" stroke-opacity="0.45" transform="matrix(1,0,0,1,0,0)" d="M 70.4375 421.5L 722.5 421.5" stroke-width="1" stroke="#000"></path><g stroke="none" fill="none" opacity="1" fill-opacity="1" stroke-opacity="1" transform="matrix(1,0,0,1,0,0)"><text paint-order="stroke" style="stroke-linecap:butt; stroke-linejoin:miter;" alignment-baseline="auto" text-anchor="middle" opacity="1" fill-opacity="0.45" stroke-opacity="1" transform="matrix(1,0,0,1,0,0)" x="396.46875" y="442.5" stroke-width="1" font-size="12" font-family="&quot;-apple-system&quot;, BlinkMacSystemFont, &quot;Segoe UI&quot;, Roboto,&quot;Helvetica Neue&quot;, Helvetica, &quot;PingFang SC&quot;, &quot;Hiragino Sans GB&quot;, &quot;Microsoft YaHei&quot;,SimSun, &quot;sans-serif&quot;" font-style="normal" font-weight="normal" font-variant="normal" fill="#000">watch</text><g stroke="none" fill="none" opacity="1" fill-opacity="1" stroke-opacity="1" transform="matrix(1,0,0,1,0,0)"></g></g></g><g stroke="none" fill="none" opacity="1" fill-opacity="1" stroke-opacity="1" transform="matrix(1,0,0,1,0,0)"><g stroke="none" fill="none" opacity="1" fill-opacity="1" stroke-opacity="1" transform="matrix(1,0,0,1,0,0)"><path fill="none" opacity="1" fill-opacity="1" stroke-opacity="0.15" transform="matrix(1,0,0,1,0,0)" d="M 70.4375 421.5L 396.46875 421.5L 722.5 421.5" stroke-width="1" stroke="#000" stroke-dasharray="0,0"></path><path fill="none" opacity="1" fill-opacity="1" stroke-opacity="0.15" transform="matrix(1,0,0,1,0,0)" d="M 70.4375 379.5010238474763L 396.46875 379.5010238474763L 722.5 379.5010238474763" stroke-width="1" stroke="#000" stroke-dasharray="0,0"></path><path fill="none" opacity="1" fill-opacity="1" stroke-opacity="0.15" transform="matrix(1,0,0,1,0,0)" d="M 70.4375 337.5020476949526L 396.46875 337.5020476949526L 722.5 337.5020476949526" stroke-width="1" stroke="#000" stroke-dasharray="0,0"></path><path fill="none" opacity="1" fill-opacity="1" stroke-opacity="0.15" transform="matrix(1,0,0,1,0,0)" d="M 70.4375 295.5030715424288L 396.46875 295.5030715424288L 722.5 295.5030715424288" stroke-width="1" stroke="#000" stroke-dasharray="0,0"></path><path fill="none" opacity="1" fill-opacity="1" stroke-opacity="0.15" transform="matrix(1,0,0,1,0,0)" d="M 70.4375 253.5040953899051L 396.46875 253.5040953899051L 722.5 253.5040953899051" stroke-width="1" stroke="#000" stroke-dasharray="0,0"></path><path fill="none" opacity="1" fill-opacity="1" stroke-opacity="0.15" transform="matrix(1,0,0,1,0,0)" d="M 70.4375 211.50511923738136L 396.46875 211.50511923738136L 722.5 211.50511923738136" stroke-width="1" stroke="#000" stroke-dasharray="0,0"></path><path fill="none" opacity="1" fill-opacity="1" stroke-opacity="0.15" transform="matrix(1,0,0,1,0,0)" d="M 70.4375 169.50614308485765L 396.46875 169.50614308485765L 722.5 169.50614308485765" stroke-width="1" stroke="#000" stroke-dasharray="0,0"></path><path fill="none" opacity="1" fill-opacity="1" stroke-opacity="0.15" transform="matrix(1,0,0,1,0,0)" d="M 70.4375 127.50716693233392L 396.46875 127.50716693233392L 722.5 127.50716693233392" stroke-width="1" stroke="#000" stroke-dasharray="0,0"></path></g><path fill="none" opacity="1" fill-opacity="1" stroke-opacity="0.45" transform="matrix(1,0,0,1,0,0)" d="M 70.4375 421.5L 70.4375 127.50716693233392" stroke-width="1" stroke="#000"></path><path fill="none" opacity="1" fill-opacity="1" stroke-opacity="0.45" transform="matrix(1,0,0,1,0,0)" d="M 70.4375 421.5L 66.4375 421.5M 70.4375 379.5010238474763L 66.4375 379.5010238474763M 70.4375 337.5020476949526L 66.4375 337.5020476949526M 70.4375 295.5030715424288L 66.4375 295.5030715424288M 70.4375 253.5040953899051L 66.4375 253.5040953899051M 70.4375 211.50511923738136L 66.4375 211.50511923738136M 70.4375 169.50614308485765L 66.4375 169.50614308485765M 70.4375 127.50716693233392L 66.4375 127.50716693233392" stroke-width="0.5" stroke="#000"></path><g stroke="none" fill="none" opacity="1" fill-opacity="1" stroke-opacity="1" transform="matrix(1,0,0,1,0,0)"><text paint-order="stroke" style="stroke-linecap:butt; stroke-linejoin:miter;" alignment-baseline="auto" text-anchor="end" opacity="1" fill-opacity="0.45" stroke-opacity="1" transform="matrix(1,0,0,1,0,0)" x="62.4375" y="426.5" stroke-width="1" font-size="12" font-family="&quot;-apple-system&quot;, BlinkMacSystemFont, &quot;Segoe UI&quot;, Roboto,&quot;Helvetica Neue&quot;, Helvetica, &quot;PingFang SC&quot;, &quot;Hiragino Sans GB&quot;, &quot;Microsoft YaHei&quot;,SimSun, &quot;sans-serif&quot;" font-style="normal" font-weight="normal" font-variant="normal" fill="#000" font="normal normal normal 12px &quot;-apple-system&quot;, BlinkMacSystemFont, &quot;Segoe UI&quot;, Roboto,&quot;Helvetica Neue&quot;, Helvetica, &quot;PingFang SC&quot;, &quot;Hiragino Sans GB&quot;, &quot;Microsoft YaHei&quot;,SimSun, &quot;sans-serif&quot;">0</text><text paint-order="stroke" style="stroke-linecap:butt; stroke-linejoin:miter;" alignment-baseline="auto" text-anchor="end" opacity="1" fill-opacity="0.45" stroke-opacity="1" transform="matrix(1,0,0,1,0,0)" x="62.4375" y="384.5010238474763" stroke-width="1" font-size="12" font-family="&quot;-apple-system&quot;, BlinkMacSystemFont, &quot;Segoe UI&quot;, Roboto,&quot;Helvetica Neue&quot;, Helvetica, &quot;PingFang SC&quot;, &quot;Hiragino Sans GB&quot;, &quot;Microsoft YaHei&quot;,SimSun, &quot;sans-serif&quot;" font-style="normal" font-weight="normal" font-variant="normal" fill="#000" font="normal normal normal 12px &quot;-apple-system&quot;, BlinkMacSystemFont, &quot;Segoe UI&quot;, Roboto,&quot;Helvetica Neue&quot;, Helvetica, &quot;PingFang SC&quot;, &quot;Hiragino Sans GB&quot;, &quot;Microsoft YaHei&quot;,SimSun, &quot;sans-serif&quot;">10</text><text paint-order="stroke" style="stroke-linecap:butt; stroke-linejoin:miter;" alignment-baseline="auto" text-anchor="end" opacity="1" fill-opacity="0.45" stroke-opacity="1" transform="matrix(1,0,0,1,0,0)" x="62.4375" y="342.5020476949526" stroke-width="1" font-size="12" font-family="&quot;-apple-system&quot;, BlinkMacSystemFont, &quot;Segoe UI&quot;, Roboto,&quot;Helvetica Neue&quot;, Helvetica, &quot;PingFang SC&quot;, &quot;Hiragino Sans GB&quot;, &quot;Microsoft YaHei&quot;,SimSun, &quot;sans-serif&quot;" font-style="normal" font-weight="normal" font-variant="normal" fill="#000" font="normal normal normal 12px &quot;-apple-system&quot;, BlinkMacSystemFont, &quot;Segoe UI&quot;, Roboto,&quot;Helvetica Neue&quot;, Helvetica, &quot;PingFang SC&quot;, &quot;Hiragino Sans GB&quot;, &quot;Microsoft YaHei&quot;,SimSun, &quot;sans-serif&quot;">20</text><text paint-order="stroke" style="stroke-linecap:butt; stroke-linejoin:miter;" alignment-baseline="auto" text-anchor="end" opacity="1" fill-opacity="0.45" stroke-opacity="1" transform="matrix(1,0,0,1,0,0)" x="62.4375" y="300.5030715424288" stroke-width="1" font-size="12" font-family="&quot;-apple-system&quot;, BlinkMacSystemFont, &quot;Segoe UI&quot;, Roboto,&quot;Helvetica Neue&quot;, Helvetica, &quot;PingFang SC&quot;, &quot;Hiragino Sans GB&quot;, &quot;Microsoft YaHei&quot;,SimSun, &quot;sans-serif&quot;" font-style="normal" font-weight="normal" font-variant="normal" fill="#000" font="normal normal normal 12px &quot;-apple-system&quot;, BlinkMacSystemFont, &quot;Segoe UI&quot;, Roboto,&quot;Helvetica Neue&quot;, Helvetica, &quot;PingFang SC&quot;, &quot;Hiragino Sans GB&quot;, &quot;Microsoft YaHei&quot;,SimSun, &quot;sans-serif&quot;">30</text><text paint-order="stroke" style="stroke-linecap:butt; stroke-linejoin:miter;" alignment-baseline="auto" text-anchor="end" opacity="1" fill-opacity="0.45" stroke-opacity="1" transform="matrix(1,0,0,1,0,0)" x="62.4375" y="258.5040953899051" stroke-width="1" font-size="12" font-family="&quot;-apple-system&quot;, BlinkMacSystemFont, &quot;Segoe UI&quot;, Roboto,&quot;Helvetica Neue&quot;, Helvetica, &quot;PingFang SC&quot;, &quot;Hiragino Sans GB&quot;, &quot;Microsoft YaHei&quot;,SimSun, &quot;sans-serif&quot;" font-style="normal" font-weight="normal" font-variant="normal" fill="#000" font="normal normal normal 12px &quot;-apple-system&quot;, BlinkMacSystemFont, &quot;Segoe UI&quot;, Roboto,&quot;Helvetica Neue&quot;, Helvetica, &quot;PingFang SC&quot;, &quot;Hiragino Sans GB&quot;, &quot;Microsoft YaHei&quot;,SimSun, &quot;sans-serif&quot;">40</text><text paint-order="stroke" style="stroke-linecap:butt; stroke-linejoin:miter;" alignment-baseline="auto" text-anchor="end" opacity="1" fill-opacity="0.45" stroke-opacity="1" transform="matrix(1,0,0,1,0,0)" x="62.4375" y="216.50511923738136" stroke-width="1" font-size="12" font-family="&quot;-apple-system&quot;, BlinkMacSystemFont, &quot;Segoe UI&quot;, Roboto,&quot;Helvetica Neue&quot;, Helvetica, &quot;PingFang SC&quot;, &quot;Hiragino Sans GB&quot;, &quot;Microsoft YaHei&quot;,SimSun, &quot;sans-serif&quot;" font-style="normal" font-weight="normal" font-variant="normal" fill="#000" font="normal normal normal 12px &quot;-apple-system&quot;, BlinkMacSystemFont, &quot;Segoe UI&quot;, Roboto,&quot;Helvetica Neue&quot;, Helvetica, &quot;PingFang SC&quot;, &quot;Hiragino Sans GB&quot;, &quot;Microsoft YaHei&quot;,SimSun, &quot;sans-serif&quot;">50</text><text paint-order="stroke" style="stroke-linecap:butt; stroke-linejoin:miter;" alignment-baseline="auto" text-anchor="end" opacity="1" fill-opacity="0.45" stroke-opacity="1" transform="matrix(1,0,0,1,0,0)" x="62.4375" y="174.50614308485765" stroke-width="1" font-size="12" font-family="&quot;-apple-system&quot;, BlinkMacSystemFont, &quot;Segoe UI&quot;, Roboto,&quot;Helvetica Neue&quot;, Helvetica, &quot;PingFang SC&quot;, &quot;Hiragino Sans GB&quot;, &quot;Microsoft YaHei&quot;,SimSun, &quot;sans-serif&quot;" font-style="normal" font-weight="normal" font-variant="normal" fill="#000" font="normal normal normal 12px &quot;-apple-system&quot;, BlinkMacSystemFont, &quot;Segoe UI&quot;, Roboto,&quot;Helvetica Neue&quot;, Helvetica, &quot;PingFang SC&quot;, &quot;Hiragino Sans GB&quot;, &quot;Microsoft YaHei&quot;,SimSun, &quot;sans-serif&quot;">60</text><text paint-order="stroke" style="stroke-linecap:butt; stroke-linejoin:miter;" alignment-baseline="auto" text-anchor="end" opacity="1" fill-opacity="0.45" stroke-opacity="1" transform="matrix(1,0,0,1,0,0)" x="62.4375" y="132.50716693233392" stroke-width="1" font-size="12" font-family="&quot;-apple-system&quot;, BlinkMacSystemFont, &quot;Segoe UI&quot;, Roboto,&quot;Helvetica Neue&quot;, Helvetica, &quot;PingFang SC&quot;, &quot;Hiragino Sans GB&quot;, &quot;Microsoft YaHei&quot;,SimSun, &quot;sans-serif&quot;" font-style="normal" font-weight="normal" font-variant="normal" fill="#000" font="normal normal normal 12px &quot;-apple-system&quot;, BlinkMacSystemFont, &quot;Segoe UI&quot;, Roboto,&quot;Helvetica Neue&quot;, Helvetica, &quot;PingFang SC&quot;, &quot;Hiragino Sans GB&quot;, &quot;Microsoft YaHei&quot;,SimSun, &quot;sans-serif&quot;">70</text><g stroke="none" fill="none" opacity="1" fill-opacity="1" stroke-opacity="1" transform="matrix(1,0,0,1,0,0)"></g></g><text paint-order="stroke" style="stroke-linecap:butt; stroke-linejoin:miter;" alignment-baseline="auto" text-anchor="middle" opacity="1" fill-opacity="0.65" stroke-opacity="1" transform="matrix(-1.8369701987210297e-16,-1,1,-1.8369701987210297e-16,-238.00358346616696,311.003583466167)" x="36.5" y="270.50358346616696" stroke-width="1" font-size="12" font-family="&quot;-apple-system&quot;, BlinkMacSystemFont, &quot;Segoe UI&quot;, Roboto,&quot;Helvetica Neue&quot;, Helvetica, &quot;PingFang SC&quot;, &quot;Hiragino Sans GB&quot;, &quot;Microsoft YaHei&quot;,SimSun, &quot;sans-serif&quot;" font-style="normal" font-weight="normal" font-variant="normal" fill="#000">seconds</text></g></g></g><g stroke="none" fill="none" opacity="1" fill-opacity="1" stroke-opacity="1" transform="matrix(1,0,0,1,0,0)"><path stroke="none" d="M 70.4375,127.50716693233393 l 652.0625,0 l 0,293.9928330676661 l-652.0625 0 z" opacity="1" fill-opacity="0" stroke-opacity="1" transform="matrix(1,0,0,1,0,0)" width="652.0625" height="293.9928330676661" stroke-width="1" fill="#ffffff"></path><g stroke="none" fill="none" opacity="1" fill-opacity="1" stroke-opacity="1" transform="matrix(1,0,0,1,0,0)"><g stroke="none" fill="none" opacity="1" fill-opacity="1" stroke-opacity="1" transform="matrix(1,0,0,1,0,0)"><path stroke="none" opacity="1" fill-opacity="0.85" stroke-opacity="1" transform="matrix(1,0,0,1,0,0)" d="M 191.06906249999997 421.5L 191.06906249999997 134.14300516443268L 386.6878125 134.14300516443268L 386.6878125 421.5L 191.06906249999997 421.5z" stroke-width="0" fill="#5B8FF9"></path><path stroke="none" opacity="1" fill-opacity="0.85" stroke-opacity="1" transform="matrix(1,0,0,1,0,0)" d="M 406.24968749999994 421.5L 406.24968749999994 187.4817048781378L 601.8684374999999 187.4817048781378L 601.8684374999999 421.5L 406.24968749999994 421.5z" stroke-width="0" fill="#5AD8A6"></path></g></g></g><g stroke="none" fill="none" opacity="1" fill-opacity="1" stroke-opacity="1" transform="matrix(1,0,0,1,0,0)"><g stroke="none" fill="none" opacity="1" fill-opacity="1" stroke-opacity="1" transform="matrix(1,0,0,1,0,0)"><g stroke="none" fill="none" opacity="1" fill-opacity="1" stroke-opacity="1" transform="matrix(1,0,0,1,0,0)"><g stroke="none" fill="none" opacity="1" fill-opacity="1" stroke-opacity="1" transform="matrix(1,0,0,1,0,0)"><text paint-order="stroke" style="stroke-linecap:butt; stroke-linejoin:miter;" alignment-baseline="auto" text-anchor="middle" opacity="1" fill-opacity="1" stroke-opacity="1" transform="matrix(1,0,0,1,0,0)" x="288.8784375" y="126.14300516443268" stroke-width="2" font-size="12" font-family="&quot;-apple-system&quot;, BlinkMacSystemFont, &quot;Segoe UI&quot;, Roboto,&quot;Helvetica Neue&quot;, Helvetica, &quot;PingFang SC&quot;, &quot;Hiragino Sans GB&quot;, &quot;Microsoft YaHei&quot;,SimSun, &quot;sans-serif&quot;" font-style="normal" font-weight="normal" font-variant="normal" fill="#595959" stroke="#ffffff" font="normal normal normal 12px &quot;-apple-system&quot;, BlinkMacSystemFont, &quot;Segoe UI&quot;, Roboto,&quot;Helvetica Neue&quot;, Helvetica, &quot;PingFang SC&quot;, &quot;Hiragino Sans GB&quot;, &quot;Microsoft YaHei&quot;,SimSun, &quot;sans-serif&quot;">68.42</text><text paint-order="stroke" style="stroke-linecap:butt; stroke-linejoin:miter;" alignment-baseline="auto" text-anchor="middle" opacity="1" fill-opacity="1" stroke-opacity="1" transform="matrix(1,0,0,1,0,0)" x="504.0590624999999" y="179.4817048781378" stroke-width="2" font-size="12" font-family="&quot;-apple-system&quot;, BlinkMacSystemFont, &quot;Segoe UI&quot;, Roboto,&quot;Helvetica Neue&quot;, Helvetica, &quot;PingFang SC&quot;, &quot;Hiragino Sans GB&quot;, &quot;Microsoft YaHei&quot;,SimSun, &quot;sans-serif&quot;" font-style="normal" font-weight="normal" font-variant="normal" fill="#595959" stroke="#ffffff" font="normal normal normal 12px &quot;-apple-system&quot;, BlinkMacSystemFont, &quot;Segoe UI&quot;, Roboto,&quot;Helvetica Neue&quot;, Helvetica, &quot;PingFang SC&quot;, &quot;Hiragino Sans GB&quot;, &quot;Microsoft YaHei&quot;,SimSun, &quot;sans-serif&quot;">55.72</text></g><g stroke="none" fill="none" opacity="1" fill-opacity="1" stroke-opacity="1" transform="matrix(1,0,0,1,0,0)"></g></g></g><g stroke="none" fill="none" opacity="1" fill-opacity="1" stroke-opacity="1" transform="matrix(1,0,0,1,0,0)"></g><g stroke="none" fill="none" opacity="1" fill-opacity="1" stroke-opacity="1" transform="matrix(1,0,0,1,24,77)"><g stroke="none" fill="none" opacity="1" fill-opacity="1" stroke-opacity="1" transform="matrix(1,0,0,1,0,0)"><g stroke="none" fill="none" opacity="1" fill-opacity="1" stroke-opacity="1" transform="matrix(1,0,0,1,0,0)"><path stroke="none" d="M 0 11L 8 11L 8 19L 0 19Z" opacity="1" fill-opacity="0.85" stroke-opacity="1" transform="matrix(1,0,0,1,0,0)" stroke-width="0" fill="#5B8FF9"></path><text paint-order="stroke" style="stroke-linecap:butt; stroke-linejoin:miter;" alignment-baseline="auto" text-anchor="left" opacity="1" fill-opacity="1" stroke-opacity="1" transform="matrix(1,0,0,1,0,0)" x="16" y="21" stroke-width="1" font-size="12" font-family="&quot;-apple-system&quot;, BlinkMacSystemFont, &quot;Segoe UI&quot;, Roboto,&quot;Helvetica Neue&quot;, Helvetica, &quot;PingFang SC&quot;, &quot;Hiragino Sans GB&quot;, &quot;Microsoft YaHei&quot;,SimSun, &quot;sans-serif&quot;" font-style="normal" font-weight="normal" font-variant="normal" fill="#8C8C8C" font="normal normal normal 12px &quot;-apple-system&quot;, BlinkMacSystemFont, &quot;Segoe UI&quot;, Roboto,&quot;Helvetica Neue&quot;, Helvetica, &quot;PingFang SC&quot;, &quot;Hiragino Sans GB&quot;, &quot;Microsoft YaHei&quot;,SimSun, &quot;sans-serif&quot;">lua-resty-ffi-etcd</text><path stroke="none" d="M 0,8.5 l 105.1640625,0 l 0,13 l-105.1640625 0 z" opacity="1" fill-opacity="0" stroke-opacity="1" transform="matrix(1,0,0,1,0,0)" width="105.1640625" height="13" stroke-width="1" fill="#fff"></path></g><g stroke="none" fill="none" opacity="1" fill-opacity="1" stroke-opacity="1" transform="matrix(1,0,0,1,0,0)"><path stroke="none" d="M 116.1640625 11L 124.1640625 11L 124.1640625 19L 116.1640625 19Z" opacity="1" fill-opacity="0.85" stroke-opacity="1" transform="matrix(1,0,0,1,0,0)" stroke-width="0" fill="#5AD8A6"></path><text paint-order="stroke" style="stroke-linecap:butt; stroke-linejoin:miter;" alignment-baseline="auto" text-anchor="left" opacity="1" fill-opacity="1" stroke-opacity="1" transform="matrix(1,0,0,1,0,0)" x="132.1640625" y="21" stroke-width="1" font-size="12" font-family="&quot;-apple-system&quot;, BlinkMacSystemFont, &quot;Segoe UI&quot;, Roboto,&quot;Helvetica Neue&quot;, Helvetica, &quot;PingFang SC&quot;, &quot;Hiragino Sans GB&quot;, &quot;Microsoft YaHei&quot;,SimSun, &quot;sans-serif&quot;" font-style="normal" font-weight="normal" font-variant="normal" fill="#8C8C8C" font="normal normal normal 12px &quot;-apple-system&quot;, BlinkMacSystemFont, &quot;Segoe UI&quot;, Roboto,&quot;Helvetica Neue&quot;, Helvetica, &quot;PingFang SC&quot;, &quot;Hiragino Sans GB&quot;, &quot;Microsoft YaHei&quot;,SimSun, &quot;sans-serif&quot;">go-etcd</text><path stroke="none" d="M 116.1640625,8.5 l 58.189453125,0 l 0,13 l-58.189453125 0 z" opacity="1" fill-opacity="0" stroke-opacity="1" transform="matrix(1,0,0,1,0,0)" width="58.189453125" height="13" stroke-width="1" fill="#fff"></path></g></g></g></g></g></svg>